<?xml version="1.0" encoding="utf-8"?>
<!-- Generator: Adobe Illustrator 24.0.1, SVG Export Plug-In . SVG Version: 6.00 Build 0)  -->
<svg version="1.1" id="Layer_1" xmlns="http://www.w3.org/2000/svg" xmlns:xlink="http://www.w3.org/1999/xlink" x="0px" y="0px"
	 viewBox="0 0 937 3702.2" style="enable-background:new 0 0 937 3702.2;" xml:space="preserve">
<style type="text/css">
	.st0{fill:#FFFFFF;}
	.st1{fill:#F1F0E1;}
	.st2{fill:#F3836D;}
	.st3{fill:#1B2232;enable-background:new    ;}
</style>
<title>bg</title>
<g id="Layer_1_1_">
	
		<image style="overflow:visible;enable-background:new    ;" width="557" height="2048" xlink:href="DD67066D6E221917.png"  transform="matrix(1.8077 0 0 1.8077 -69.6067 0)">
	</image>
	<rect x="123.7" y="768.2" class="st0" width="20.1" height="8.8"/>
</g>
<g id="Layer_2_1_">
	<path class="st1" d="M227.6,392.4L227.6,392.4z"/>
	<path class="st2" d="M-38,708L-38,708z"/>
	<path class="st2" d="M187.6,766.1L187.6,766.1z"/>
	<path class="st2" d="M922.1,1367.3v-23.7h12.3c-160.5-55.9-422.9-16.8-620.9,65.5c-5.2,2.4-10.5,4.6-15.9,6.7
		c-13.9,5.7-28.2,10.4-42.8,14.1c-7.4,1.1-15,2.3-22.3,3.2c-7.2,0.9-14.1,1.6-20.1,1.6c-6.9-1-13.7-2-20.6-3
		c-67.9-9.5-133.7-14.2-191.4-10.9c0.9,19.4,0.7,38.7,0.4,58.1c-0.1,3.9-0.1,7.8-0.2,11.6C0.3,1503.7,0,1516.9,0,1530
		c0.2,2.9,0.5,5.8,0.6,8.7c0.7-0.3,1.4-0.6,2.2-0.8v885.2h926.5v-869.5c1.8-0.1,3.5-0.2,5.2-0.3c-0.6-9.3,0.1-18.9,0.1-28.1
		c0.1-17.1,0.2-34.1,0.5-51.1c0.6-35.7,1.3-71.2,1.3-106.9v0H922.1z M312.7,1409.7c-5.3,2.4-10.6,4.6-16,6.8
		C302,1414.2,307.3,1411.9,312.7,1409.7z"/>
	<path class="st2" d="M312.7,1409.7c-5.3,2.4-10.6,4.6-16,6.8C302,1414.2,307.3,1411.9,312.7,1409.7z"/>
	<path class="st2" d="M937,1364c-0.4,1-0.6,2.1-0.6,3.2v0.1h-14.3v-23.7h12.3c0.2,0.1,0.4,0.1,0.6,0.2c-0.8,1.8-1,3.7-0.7,5.6
		c0.3,2.4,0.9,4.8,1.5,7.1c0.2,1.3,0.4,2.6,0.6,3.9C936.6,1361.6,936.8,1362.8,937,1364z"/>
	<path class="st2" d="M129.3,775.5L129.3,775.5L129.3,775.5c2-0.3,4.1-0.7,6.2-1.2c1.7-0.4,3.5-0.8,5.2-1.3L129.3,775.5z"/>
	<path class="st2" d="M312.7,1409.7c-5.3,2.4-10.6,4.6-16,6.8C302,1414.2,307.3,1411.9,312.7,1409.7z"/>
	<path class="st2" d="M4.7,778.2H0.9v7.1C2.2,783,3.5,780.6,4.7,778.2z"/>
	<rect x="922.1" y="1343.6" class="st2" width="14.3" height="23.7"/>
</g>
<g id="Layer_4">
	<rect x="114" y="757.2" class="st0" width="28.1" height="23.1"/>
</g>
<g id="Layer_2_2_">
	<path class="st1" d="M714,1714.6"/>
	<path class="st1" d="M979.6,1399"/>
	<path class="st1" d="M754,1340.9"/>
	<path class="st1" d="M4.7,743c0.4-1.1,0.6-2.2,0.6-3.3c0-35.7,0.7-71.2,1.3-106.9c0.3-17,0.3-34,0.5-51.1
		c0.1-9.2,0.7-18.8,0.2-28.1c87.9-5,206.8,6,325.3,22.4c-72.1-22.5-119.2-39.6-121-40.3L761,631c16.9-10.1,30.8-19.1,41.5-26.3
		L791.3,633c48.7-22.6,100.8-45.6,149.7-64.7c0.1,2.9,0.4,5.8,0.6,8.7c0,13.2-0.3,26.3-0.6,39.4c-0.1,3.9-0.2,7.8-0.2,11.6
		c-0.4,19.4-0.6,38.7,0.4,58.1c-57.7,3.4-123.5-1.3-191.4-10.8c-6.8-1-13.7-2-20.6-3l0,0c-12,0-27.5,2.5-42.4,4.8
		c-14.6,3.7-28.9,8.4-42.8,14.1c-5.3,2.1-10.6,4.4-15.9,6.7C429.9,780.3,167.1,819.5,6.7,763.2c0.8-1.8,1-3.7,0.7-5.6
		c-0.3-2.4-0.8-4.8-1.5-7.1C5.4,748,5,745.5,4.7,743z"/>
	<path class="st1" d="M812.3,1331.5L812.3,1331.5L812.3,1331.5c-2,0.3-4.1,0.7-6.2,1.2c-1.7,0.4-3.5,0.8-5.2,1.3L812.3,1331.5z"/>
	<path class="st1" d="M629,697.3c5.3-2.4,10.6-4.6,16-6.8C639.7,692.8,634.4,695,629,697.3z"/>
	<path class="st1" d="M937,1328.8h3.8v-7.1C939.5,1324,938.2,1326.4,937,1328.8z"/>
	<rect x="5.2" y="739.7" class="st1" width="14.3" height="23.7"/>
</g>
<rect x="2.8" y="2423.1" class="st3" width="926.5" height="530.1"/>
</svg>
