<?xml version="1.0" encoding="utf-8"?>
<!-- Generator: Adobe Illustrator 24.0.1, SVG Export Plug-In . SVG Version: 6.00 Build 0)  -->
<svg version="1.1" id="Layer_1" xmlns="http://www.w3.org/2000/svg" xmlns:xlink="http://www.w3.org/1999/xlink" x="0px" y="0px"
	 viewBox="0 0 1376 1739" style="enable-background:new 0 0 1376 1739;" xml:space="preserve">
<style type="text/css">
	.st0{fill:#F1EFE1;}
</style>
<g id="Layer_2_2_">
	<path class="st0" d="M1532.7,3582L1532.7,3582z"/>
	<path class="st0" d="M1623.61,2685.75L1623.61,2685.75z"/>
	<path class="st0" d="M1375.72,1126.13c-12.02,5.51-24.17,10.92-36.38,16.26C1351.39,1136.71,1363.51,1131.27,1375.72,1126.13z"/>
	<path class="st0" d="M1756.07,2663.36h0.14v-0.24c-4.77,0.86-9.55,1.85-14.3,3c-3.95,0.94-7.91,1.99-11.82,3.09L1756.07,2663.36z"
		/>
	<path class="st0" d="M1375.72,1126.13c-12.02,5.51-24.17,10.92-36.38,16.26C1351.39,1136.71,1363.51,1131.27,1375.72,1126.13z"/>
</g>
<path class="st0" d="M-4.6-3v981.81c254.93,74.97,641.84,7.69,937.55-126.02c8.29-4.03,16.62-7.88,25.02-11.53
	c21.94-9.79,44.46-17.88,67.45-24.22c23.45-3.87,47.84-8.21,66.75-8.21c10.86,1.69,21.62,3.41,32.4,5.13
	c97.61,14.92,192.44,22.89,277.43,19.76V-3H-4.6z M934.22,851.7c8.36-4.06,16.76-7.95,25.23-11.62
	C951.12,844.01,942.69,847.88,934.22,851.7z"/>
</svg>
