<?xml version="1.0" encoding="utf-8"?>
<!-- Generator: Adobe Illustrator 24.0.1, SVG Export Plug-In . SVG Version: 6.00 Build 0)  -->
<svg version="1.1" id="Layer_1" xmlns="http://www.w3.org/2000/svg" xmlns:xlink="http://www.w3.org/1999/xlink" x="0px" y="0px"
	 viewBox="0 0 2092.71 1542.98" style="enable-background:new 0 0 2092.71 1542.98;" xml:space="preserve">
<style type="text/css">
	.st0{fill:#F1EFE1;}
	.st1{fill:#F1F0E1;}
	.st2{fill:#F3836D;}
</style>
<g id="Layer_2_2_">
	<path class="st0" d="M1511.7,3582L1511.7,3582z"/>
	<path class="st0" d="M1602.61,2685.75L1602.61,2685.75z"/>
	<path class="st0" d="M1354.72,1126.13c-12.02,5.51-24.17,10.92-36.38,16.26C1330.39,1136.71,1342.51,1131.27,1354.72,1126.13z"/>
	<path class="st0" d="M1735.07,2663.36h0.14v-0.24c-4.77,0.86-9.55,1.85-14.3,3c-3.95,0.94-7.91,1.99-11.82,3.09L1735.07,2663.36z"
		/>
	<path class="st0" d="M1354.72,1126.13c-12.02,5.51-24.17,10.92-36.38,16.26C1330.39,1136.71,1342.51,1131.27,1354.72,1126.13z"/>
</g>
<g id="Layer_2_1_">
	<path class="st1" d="M499.64-972.04L499.64-972.04z"/>
	<path class="st2" d="M-110-631.51L-110-631.51z"/>
	<path class="st2" d="M407.83-568.79L407.83-568.79z"/>
	<path class="st2" d="M2093.84,79.81V54.24h28.19c-368.35-60.37-970.81-18.09-1425.26,70.68c-12.05,2.55-24.22,4.96-36.45,7.26
		c-31.95,6.15-64.75,11.24-98.22,15.23c-17.08,1.22-34.5,2.51-51.1,3.51c-16.6,0.98-32.37,1.67-46.14,1.67
		c-15.79-1.08-31.49-2.16-47.19-3.24c-155.81-10.29-306.81-15.35-439.35-11.71c2.11,20.88,1.7,41.78,0.83,62.68
		c-0.16,4.18-0.34,8.36-0.55,12.56c-0.67,14.18-1.4,28.33-1.4,42.52c0.53,3.14,1.03,6.27,1.38,9.39c1.65-0.3,3.31-0.6,4.98-0.92
		V1219h2126.72V280.88c4.04-0.1,8.06-0.19,12.03-0.3c-1.33-10.08,0.16-20.39,0.34-30.31c0.28-18.42,0.41-36.76,1.08-55.1
		c1.35-38.49,2.98-76.87,2.98-115.34v-0.01H2093.84z M694.92,125.63c-12.14,2.56-24.4,5-36.73,7.32
		C670.33,130.46,682.57,128.02,694.92,125.63z"/>
	<path class="st2" d="M694.92,125.63c-12.14,2.56-24.4,5-36.73,7.32C670.33,130.46,682.57,128.02,694.92,125.63z"/>
	<path class="st2" d="M2128,76.28c-0.85,1.1-1.29,2.27-1.29,3.45v0.08h-32.87V54.24h28.19c0.46,0.08,0.9,0.14,1.33,0.22
		c-1.81,1.9-2.39,3.99-1.68,6.04c0.76,2.6,1.95,5.18,3.54,7.69c0.53,1.39,1.01,2.78,1.49,4.18
		C2127.15,73.66,2127.56,74.97,2128,76.28z"/>
	<path class="st2" d="M274.05-558.71h-0.14v0.11c4.82-0.39,9.64-0.83,14.44-1.35c3.99-0.42,7.99-0.9,11.94-1.39L274.05-558.71z"/>
	<path class="st2" d="M694.92,125.63c-12.14,2.56-24.4,5-36.73,7.32C670.33,130.46,682.57,128.02,694.92,125.63z"/>
	<path class="st2" d="M-12.12-555.77h-8.63v7.68C-17.77-550.59-14.79-553.16-12.12-555.77z"/>
	<rect x="2093.84" y="54.24" class="st2" width="32.87" height="25.57"/>
</g>
<rect x="-30" y="1134" class="st2" width="2140" height="409"/>
</svg>
