<?xml version="1.0" encoding="utf-8"?>
<!-- Generator: Adobe Illustrator 24.0.1, SVG Export Plug-In . SVG Version: 6.00 Build 0)  -->
<svg version="1.1" id="Layer_1" xmlns="http://www.w3.org/2000/svg" xmlns:xlink="http://www.w3.org/1999/xlink" x="0px" y="0px"
	 viewBox="0 0 1376 1739" style="enable-background:new 0 0 1376 1739;" xml:space="preserve">
<style type="text/css">
	.st0{fill:#F1EFE1;}
</style>
<g id="Layer_2_2_">
	<path class="st0" d="M1532.7,3582L1532.7,3582z"/>
	<path class="st0" d="M1623.6,2685.8L1623.6,2685.8z"/>
	<path class="st0" d="M1375.7,1126.1c-12,5.5-24.2,10.9-36.4,16.3C1351.4,1136.7,1363.5,1131.3,1375.7,1126.1z"/>
	<path class="st0" d="M1756.1,2663.4h0.1v-0.2c-4.8,0.9-9.6,1.9-14.3,3c-3.9,0.9-7.9,2-11.8,3.1L1756.1,2663.4z"/>
	<path class="st0" d="M1375.7,1126.1c-12,5.5-24.2,10.9-36.4,16.3C1351.4,1136.7,1363.5,1131.3,1375.7,1126.1z"/>
</g>
<path class="st0" d="M-4.6,693.6v981.8c254.9,75,641.8,7.7,937.5-126c8.3-4,16.6-7.9,25-11.5c21.9-9.8,44.5-17.9,67.5-24.2
	c23.4-3.9,47.8-8.2,66.8-8.2c10.9,1.7,21.6,3.4,32.4,5.1c97.6,14.9,192.4,22.9,277.4,19.8V693.6H-4.6z M934.2,1548.3
	c8.4-4.1,16.8-7.9,25.2-11.6C951.1,1540.6,942.7,1544.5,934.2,1548.3z"/>
<path class="st0" d="M1402,1027.4V45.6c-254.9-75-641.8-7.7-937.6,126c-8.3,4-16.6,7.9-25,11.5C417.5,193,395,201,372,207.4
	c-23.4,3.9-47.8,8.2-66.8,8.2c-10.9-1.7-21.6-3.4-32.4-5.1c-97.6-14.9-192.4-22.9-277.4-19.8v836.7H1402z M463.2,172.7
	c-8.4,4.1-16.8,8-25.2,11.6C446.3,180.4,454.7,176.5,463.2,172.7z"/>
</svg>
