<?xml version="1.0" encoding="utf-8"?>
<!-- Generator: Adobe Illustrator 24.0.1, SVG Export Plug-In . SVG Version: 6.00 Build 0)  -->
<svg version="1.1" id="Layer_1" xmlns="http://www.w3.org/2000/svg" xmlns:xlink="http://www.w3.org/1999/xlink" x="0px" y="0px"
	 viewBox="0 0 2092.7 1543" style="enable-background:new 0 0 2092.7 1543;" xml:space="preserve">
<style type="text/css">
	.st0{fill:#F1EFE1;}
	.st1{fill:#F1D08A;}
</style>
<g id="Layer_2_2_">
	<path class="st0" d="M1511.7,3582L1511.7,3582z"/>
	<path class="st0" d="M1602.6,2685.8L1602.6,2685.8z"/>
	<path class="st0" d="M1354.7,1126.1c-12,5.5-24.2,10.9-36.4,16.3C1330.4,1136.7,1342.5,1131.3,1354.7,1126.1z"/>
	<path class="st0" d="M1735.1,2663.4h0.1v-0.2c-4.8,0.9-9.6,1.9-14.3,3c-3.9,0.9-7.9,2-11.8,3.1L1735.1,2663.4z"/>
	<path class="st0" d="M1354.7,1126.1c-12,5.5-24.2,10.9-36.4,16.3C1330.4,1136.7,1342.5,1131.3,1354.7,1126.1z"/>
</g>
<g id="Layer_2_1_">
	<path class="st1" d="M1588.9,2212.8L1588.9,2212.8z"/>
	<path class="st1" d="M2198.5,1872.3L2198.5,1872.3z"/>
	<path class="st1" d="M1680.7,1809.6L1680.7,1809.6z"/>
	<path class="st1" d="M-5.3,1160.9v25.6h-28.2c368.4,60.4,970.8,18.1,1425.3-70.7c12.1-2.6,24.2-5,36.4-7.3
		c32-6.2,64.8-11.2,98.2-15.2c17.1-1.2,34.5-2.5,51.1-3.5c16.6-1,32.4-1.7,46.1-1.7c15.8,1.1,31.5,2.2,47.2,3.2
		c155.8,10.3,306.8,15.3,439.4,11.7c-2.1-20.9-1.7-41.8-0.8-62.7c0.2-4.2,0.3-8.4,0.6-12.6c0.7-14.2,1.4-28.3,1.4-42.5
		c-0.5-3.1-1-6.3-1.4-9.4c-1.7,0.3-3.3,0.6-5,0.9V106.8h13.6v-409h-2140v324h-0.3v938.1c-4,0.1-8.1,0.2-12,0.3
		c1.3,10.1-0.2,20.4-0.3,30.3c-0.3,18.4-0.4,36.8-1.1,55.1c-1.4,38.5-3,76.9-3,115.3v0H-5.3z M1393.6,1115.1
		c12.1-2.6,24.4-5,36.7-7.3C1418.2,1110.3,1405.9,1112.7,1393.6,1115.1z"/>
	<path class="st1" d="M1393.6,1115.1c12.1-2.6,24.4-5,36.7-7.3C1418.2,1110.3,1405.9,1112.7,1393.6,1115.1z"/>
	<path class="st1" d="M-39.5,1164.5c0.9-1.1,1.3-2.3,1.3-3.4v-0.1h32.9v25.6h-28.2c-0.5-0.1-0.9-0.1-1.3-0.2c1.8-1.9,2.4-4,1.7-6
		c-0.8-2.6-1.9-5.2-3.5-7.7c-0.5-1.4-1-2.8-1.5-4.2C-38.6,1167.1-39,1165.8-39.5,1164.5z"/>
	<path class="st1" d="M1814.5,1799.5h0.1v-0.1c-4.8,0.4-9.6,0.8-14.4,1.3c-4,0.4-8,0.9-11.9,1.4L1814.5,1799.5z"/>
	<path class="st1" d="M1393.6,1115.1c12.1-2.6,24.4-5,36.7-7.3C1418.2,1110.3,1405.9,1112.7,1393.6,1115.1z"/>
	<path class="st1" d="M2100.6,1796.5h8.6v-7.7C2106.3,1791.4,2103.3,1793.9,2100.6,1796.5z"/>
	<rect x="-38.2" y="1161" class="st1" width="32.9" height="25.6"/>
</g>
</svg>
