<?xml version="1.0" encoding="utf-8"?>
<!-- Generator: Adobe Illustrator 24.0.1, SVG Export Plug-In . SVG Version: 6.00 Build 0)  -->
<svg version="1.1" id="Layer_1" xmlns="http://www.w3.org/2000/svg" xmlns:xlink="http://www.w3.org/1999/xlink" x="0px" y="0px"
	 viewBox="0 0 595.28 2757.08" style="enable-background:new 0 0 595.28 2757.08;" xml:space="preserve">
<style type="text/css">
	.st0{fill:#F2F0E2;}
	.st1{fill:#F3836D;}
	.st2{fill:#FFFFFF;}
</style>
<g id="Layer_2_2_">
	<path class="st0" d="M459.25,1088.96L459.25,1088.96z"/>
	<path class="st0" d="M486.48,820.47L486.48,820.47z"/>
	<path class="st0" d="M412.22,353.24c-3.6,1.65-7.24,3.27-10.9,4.87C404.93,356.41,408.56,354.78,412.22,353.24z"/>
	<path class="st0" d="M526.16,813.76h0.04v-0.07c-1.43,0.26-2.86,0.55-4.28,0.9c-1.18,0.28-2.37,0.6-3.54,0.93L526.16,813.76z"/>
	<path class="st0" d="M412.22,353.24c-3.6,1.65-7.24,3.27-10.9,4.87C404.93,356.41,408.56,354.78,412.22,353.24z"/>
</g>
<path class="st0" d="M-4.29,0v411.37c110.14,31.41,277.3,3.22,405.06-52.8c3.58-1.69,7.18-3.3,10.81-4.83
	c9.48-4.1,19.21-7.49,29.14-10.15c10.13-1.62,20.67-3.44,28.84-3.44c4.69,0.71,9.34,1.43,14,2.15c42.17,6.25,83.14,9.59,119.86,8.28
	V0H-4.29z M401.32,358.11c3.61-1.7,7.24-3.33,10.9-4.87C408.62,354.89,404.98,356.51,401.32,358.11z"/>
<g id="Layer_2_1_">
	<path class="st0" d="M138.45,233.93"/>
	<path class="st1" d="M111.69,471.35"/>
	<path class="st1" d="M195.9,879.79c-3.51,1.5-7.05,2.92-10.62,4.28c-9.31,3.62-18.87,6.62-28.62,8.97
		c-9.95,1.44-20.31,3.05-28.34,3.05c-4.6-0.64-9.18-1.27-13.75-1.91c-40.14-5.36-79.18-8.3-114.39-7.43v70.27
		c28.66-11.01,58.46-23.59,86.57-35.99l-7.53,17.97c7.16-4.54,16.5-10.28,27.79-16.69l367.59,60.48
		c-1.18-0.42-32.67-11.29-80.91-25.6c72.17,9.5,144.5,16.13,201.27,14.85V833.39C486.78,805.15,321.84,830.08,195.9,879.79z"/>
	<path class="st1" d="M72.71,477.28h-0.04v0.06c1.4-0.23,2.81-0.49,4.21-0.79c1.16-0.25,2.33-0.53,3.48-0.82L72.71,477.28z"/>
	<path class="st1" d="M195.35,880.2c-3.54,1.5-7.11,2.94-10.7,4.31C188.19,883.05,191.75,881.61,195.35,880.2z"/>
	<path class="st1" d="M-10.69,479.02h-2.52v4.52C-12.33,482.07-11.46,480.55-10.69,479.02z"/>
</g>
<rect x="-17.75" y="917.99" class="st1" width="632.5" height="623.65"/>
<rect x="0.26" y="519.51" class="st2" width="165.31" height="67.75"/>
<rect x="-0.82" y="886.75" class="st1" width="13.99" height="61.24"/>
<rect x="55.35" y="466.69" class="st2" width="35.85" height="20.72"/>
</svg>
